<?xml version="1.0" encoding="utf-8"?>
<!-- Generator: Adobe Illustrator 26.3.1, SVG Export Plug-In . SVG Version: 6.00 Build 0)  -->
<svg version="1.1" id="레이어_1" xmlns="http://www.w3.org/2000/svg" xmlns:xlink="http://www.w3.org/1999/xlink" x="0px"
	 y="0px" viewBox="0 0 700 700" style="enable-background:new 0 0 700 700;" xml:space="preserve">
<style type="text/css">
	.st0{fill-rule:evenodd;clip-rule:evenodd;}
</style>
<g>
	<path d="M467.3,303.1c0,64.8-52.5,117.3-117.3,117.3s-117.3-52.5-117.3-117.3S285.2,185.8,350,185.8S467.3,238.3,467.3,303.1z"/>
	<path class="st0" d="M350,655c168.4,0,305-136.6,305-305S518.4,45,350,45S45,181.6,45,350S181.6,655,350,655z M556,505.4
		c32.7-43.2,52-97.1,52-155.4c0-142.5-115.5-258.1-258.1-258.1C207.5,91.9,91.9,207.5,91.9,350c0,58.4,19.4,112.2,52,155.4
		c2.1-2.6,4.9-4.8,8.2-6.2c25.5-10.9,88.6-31.9,197.9-31.9s172.4,21,197.9,31.9C551.2,500.6,553.9,502.8,556,505.4L556,505.4z"/>
</g>
</svg>
