<?xml version="1.0" encoding="UTF-8"?><svg id="_이어_2" xmlns="http://www.w3.org/2000/svg" viewBox="0 0 1038.8 1030.5"><defs><style>.cls-1{opacity:.6;}.cls-1,.cls-2,.cls-3{fill:#037cf9;}.cls-2,.cls-4{opacity:.3;}</style></defs><g id="_이어_1-2"><g><g><g><g class="cls-4"><path class="cls-3" d="M26.3,871.5H10.3c-4.14,0-7.5-3.36-7.5-7.5s3.36-7.5,7.5-7.5H26.3c4.14,0,7.5,3.36,7.5,7.5s-3.36,7.5-7.5,7.5Z"/><path class="cls-3" d="M88.3,871.5h-18c-4.14,0-7.5-3.36-7.5-7.5s3.36-7.5,7.5-7.5h18c4.14,0,7.5,3.36,7.5,7.5s-3.36,7.5-7.5,7.5Z"/></g><g><path class="cls-2" d="M48.8,911c-4.14,0-7.5-3.36-7.5-7.5v-16c0-4.14,3.36-7.5,7.5-7.5s7.5,3.36,7.5,7.5v16c0,4.14-3.36,7.5-7.5,7.5Z"/><path class="cls-2" d="M48.8,851c-4.14,0-7.5-3.36-7.5-7.5v-18c0-4.14,3.36-7.5,7.5-7.5s7.5,3.36,7.5,7.5v18c0,4.14-3.36,7.5-7.5,7.5Z"/></g></g><g class="cls-4"><g><path class="cls-3" d="M969.3,531.5h-16c-4.14,0-7.5-3.36-7.5-7.5s3.36-7.5,7.5-7.5h16c4.14,0,7.5,3.36,7.5,7.5s-3.36,7.5-7.5,7.5Z"/><path class="cls-3" d="M1031.3,531.5h-18c-4.14,0-7.5-3.36-7.5-7.5s3.36-7.5,7.5-7.5h18c4.14,0,7.5,3.36,7.5,7.5s-3.36,7.5-7.5,7.5Z"/></g><g><path class="cls-3" d="M991.8,571c-4.14,0-7.5-3.36-7.5-7.5v-16c0-4.14,3.36-7.5,7.5-7.5s7.5,3.36,7.5,7.5v16c0,4.14-3.36,7.5-7.5,7.5Z"/><path class="cls-3" d="M991.8,511c-4.14,0-7.5-3.36-7.5-7.5v-18c0-4.14,3.36-7.5,7.5-7.5s7.5,3.36,7.5,7.5v18c0,4.14-3.36,7.5-7.5,7.5Z"/></g></g><g class="cls-4"><g><path class="cls-3" d="M323.3,53.5h-16c-4.14,0-7.5-3.36-7.5-7.5s3.36-7.5,7.5-7.5h16c4.14,0,7.5,3.36,7.5,7.5s-3.36,7.5-7.5,7.5Z"/><path class="cls-3" d="M385.3,53.5h-18c-4.14,0-7.5-3.36-7.5-7.5s3.36-7.5,7.5-7.5h18c4.14,0,7.5,3.36,7.5,7.5s-3.36,7.5-7.5,7.5Z"/></g><g><path class="cls-3" d="M345.8,93c-4.14,0-7.5-3.36-7.5-7.5v-16c0-4.14,3.36-7.5,7.5-7.5s7.5,3.36,7.5,7.5v16c0,4.14-3.36,7.5-7.5,7.5Z"/><path class="cls-3" d="M345.8,33c-4.14,0-7.5-3.36-7.5-7.5V7.5c0-4.14,3.36-7.5,7.5-7.5s7.5,3.36,7.5,7.5V25.5c0,4.14-3.36,7.5-7.5,7.5Z"/></g></g><g class="cls-4"><g><path class="cls-3" d="M948.3,808.5h-16c-4.14,0-7.5-3.36-7.5-7.5s3.36-7.5,7.5-7.5h16c4.14,0,7.5,3.36,7.5,7.5s-3.36,7.5-7.5,7.5Z"/><path class="cls-3" d="M1010.3,808.5h-18c-4.14,0-7.5-3.36-7.5-7.5s3.36-7.5,7.5-7.5h18c4.14,0,7.5,3.36,7.5,7.5s-3.36,7.5-7.5,7.5Z"/></g><g><path class="cls-3" d="M970.8,848c-4.14,0-7.5-3.36-7.5-7.5v-16c0-4.14,3.36-7.5,7.5-7.5s7.5,3.36,7.5,7.5v16c0,4.14-3.36,7.5-7.5,7.5Z"/><path class="cls-3" d="M970.8,788c-4.14,0-7.5-3.36-7.5-7.5v-18c0-4.14,3.36-7.5,7.5-7.5s7.5,3.36,7.5,7.5v18c0,4.14-3.36,7.5-7.5,7.5Z"/></g></g><path class="cls-2" d="M24.31,676.81c-13.4,0-24.31-10.9-24.31-24.31s10.91-24.31,24.31-24.31,24.31,10.9,24.31,24.31-10.91,24.31-24.31,24.31Zm0-33.62c-5.13,0-9.31,4.18-9.31,9.31s4.18,9.31,9.31,9.31,9.31-4.18,9.31-9.31-4.18-9.31-9.31-9.31Z"/><path class="cls-2" d="M547.59,129.3c-13.4,0-24.31-10.9-24.31-24.31s10.91-24.31,24.31-24.31,24.31,10.9,24.31,24.31-10.91,24.31-24.31,24.31Zm0-33.62c-5.13,0-9.31,4.18-9.31,9.31s4.18,9.31,9.31,9.31,9.31-4.18,9.31-9.31-4.18-9.31-9.31-9.31Z"/><path class="cls-2" d="M868.59,878.3c-13.4,0-24.31-10.9-24.31-24.31s10.91-24.31,24.31-24.31,24.31,10.9,24.31,24.31-10.91,24.31-24.31,24.31Zm0-33.62c-5.13,0-9.31,4.18-9.31,9.31s4.18,9.31,9.31,9.31,9.31-4.18,9.31-9.31-4.18-9.31-9.31-9.31Z"/><path class="cls-2" d="M478.8,1030.5c-116.13,0-227.11-43.29-312.49-121.89-3.05-2.81-3.24-7.55-.44-10.6,2.81-3.05,7.55-3.24,10.6-.44,82.6,76.04,189.97,117.92,302.33,117.92,53.39,0,105.62-9.33,155.22-27.72,47.93-17.77,92.18-43.51,131.52-76.51,3.17-2.66,7.9-2.25,10.57,.93,2.66,3.17,2.25,7.9-.93,10.57-40.67,34.11-86.41,60.71-135.95,79.08-51.28,19.01-105.25,28.65-160.43,28.65Z"/><path class="cls-2" d="M898.6,403.31c-2.95,0-5.74-1.75-6.93-4.64-17.92-43.39-42.53-83.57-73.14-119.43-30.42-35.63-66.04-66.14-105.86-90.67-3.53-2.17-4.62-6.79-2.45-10.32,2.17-3.53,6.79-4.62,10.32-2.45,41.15,25.35,77.96,56.88,109.4,93.7,31.64,37.06,57.08,78.59,75.6,123.44,1.58,3.83-.24,8.21-4.07,9.79-.94,.39-1.91,.57-2.86,.57Z"/><path class="cls-2" d="M24.8,576.5c-4.14,0-7.5-3.36-7.5-7.5,0-169.38,92.54-324.87,241.52-405.79,3.64-1.98,8.19-.63,10.17,3.01,1.98,3.64,.63,8.19-3.01,10.17C121.84,254.69,32.3,405.13,32.3,569c0,4.14-3.36,7.5-7.5,7.5Z"/></g><g><path class="cls-3" d="M477.27,967.07c-53.93,0-106.26-10.56-155.52-31.4-47.58-20.12-90.3-48.93-126.99-85.62-36.69-36.69-65.5-79.42-85.62-126.99-20.84-49.26-31.4-101.59-31.4-155.52s10.56-106.26,31.4-155.52c20.12-47.58,48.93-90.3,85.62-126.99,36.69-36.69,79.42-65.5,126.99-85.62,49.26-20.84,101.59-31.4,155.52-31.4s106.26,10.56,155.52,31.4c47.58,20.12,90.3,48.93,126.99,85.62,36.69,36.69,65.5,79.42,85.62,126.99,20.84,49.26,31.4,101.59,31.4,155.52s-10.56,106.26-31.4,155.52c-20.12,47.58-48.93,90.3-85.62,126.99-36.69,36.69-79.42,65.5-126.99,85.62-49.26,20.84-101.58,31.4-155.52,31.4Zm0-784.07c-51.92,0-102.27,10.17-149.67,30.22-45.79,19.37-86.91,47.09-122.23,82.41s-63.04,76.44-82.41,122.23c-20.05,47.4-30.21,97.76-30.21,149.67s10.17,102.27,30.21,149.68c19.37,45.79,47.09,86.91,82.41,122.23s76.44,63.04,122.23,82.41c47.4,20.05,97.76,30.22,149.67,30.22s102.27-10.17,149.67-30.22c45.79-19.37,86.91-47.09,122.23-82.41,35.32-35.32,63.05-76.44,82.41-122.23,20.05-47.4,30.21-97.76,30.21-149.68s-10.17-102.27-30.21-149.67c-19.37-45.79-47.09-86.91-82.41-122.23-35.32-35.32-76.44-63.04-122.23-82.41-47.4-20.05-97.76-30.22-149.67-30.22Z"/><g><g><path class="cls-3" d="M499.56,721.12h-106.02c-4.14,0-7.5-3.36-7.5-7.5s3.36-7.5,7.5-7.5h106.02c15.11,0,29.27-1.36,42.1-4.03,12.23-2.55,22.95-7.3,31.86-14.12,7.99-5.99,14.7-13.46,20.01-22.22,.02-.04,.05-.08,.07-.12,8.35-13.24,12.59-28.45,12.59-45.22s-3.64-30.04-10.83-41.18c-7.17-11.11-17.61-19.04-31.92-24.25-2.8-1.02-4.74-3.6-4.92-6.58-.19-2.98,1.41-5.78,4.07-7.14,9.41-4.81,16.54-10.1,21.19-15.71,8.35-10.02,12.57-23.7,12.57-40.67s-4.29-30.98-12.76-42.75c-14.11-19.2-39.02-29.24-73.99-29.77h-141.65v269.56c0,4.14-3.36,7.5-7.5,7.5s-7.5-3.36-7.5-7.5V404.87c0-4.14,3.36-7.5,7.5-7.5h149.21s.07,0,.11,0c39.95,.59,68.87,12.69,85.95,35.95,10.38,14.43,15.63,31.76,15.63,51.57s-5.39,37.47-16.03,50.25c-3.48,4.19-7.91,8.18-13.23,11.91,10.8,6.07,19.48,14.12,25.88,24.05,8.78,13.6,13.23,30.2,13.23,49.31s-5,37.51-14.87,53.17c-6.3,10.39-14.29,19.26-23.74,26.35-10.66,8.15-23.42,13.83-37.86,16.84-13.83,2.88-29.02,4.35-45.16,4.35Z"/><path class="cls-3" d="M495.65,534.07h-35.36c-4.14,0-7.5-3.36-7.5-7.5s3.36-7.5,7.5-7.5h35.36c11.95,0,21.62-2.2,28.75-6.55,6.02-3.67,8.95-10.45,8.95-20.72,0-14.63-6.62-19.28-11.73-21.46-8.69-2.88-20.07-4.34-33.84-4.34h-59.66v60.58c0,4.14-3.36,7.5-7.5,7.5s-7.5-3.36-7.5-7.5v-68.08c0-4.14,3.36-7.5,7.5-7.5h67.16c15.53,0,28.61,1.75,38.88,5.21,.17,.06,.33,.12,.49,.19,9.67,4.03,21.2,13.45,21.2,35.41,0,15.72-5.43,27-16.14,33.53-9.51,5.8-21.81,8.74-36.55,8.74Z"/><path class="cls-3" d="M495.57,667.5h-54.17c-4.14,0-7.5-3.36-7.5-7.5s3.36-7.5,7.5-7.5h54.17c12.18,0,21.6-1.58,27.98-4.69,3.94-1.95,16.08-7.97,16.08-31.8,0-13.15-4.86-21.5-15.29-26.28-6.32-2.89-15.68-4.43-27.81-4.56h-68.41v49.65c0,4.14-3.36,7.5-7.5,7.5s-7.5-3.36-7.5-7.5v-57.14c0-4.14,3.36-7.5,7.5-7.5h75.99c14.53,.15,25.62,2.09,33.98,5.92,15.73,7.21,24.05,21.01,24.05,39.91,0,21.99-8.23,37.22-24.46,45.26-8.61,4.2-19.91,6.23-34.6,6.23Z"/></g><g><path class="cls-3" d="M424.36,347.57c-15.7,0-28.47-12.77-28.47-28.47s12.77-28.47,28.47-28.47,28.47,12.77,28.47,28.47-12.77,28.47-28.47,28.47Zm0-41.95c-7.43,0-13.47,6.04-13.47,13.47s6.04,13.47,13.47,13.47,13.47-6.04,13.47-13.47-6.04-13.47-13.47-13.47Z"/><path class="cls-3" d="M424.36,412.39c-4.14,0-7.5-3.36-7.5-7.5v-63.83c0-4.14,3.36-7.5,7.5-7.5s7.5,3.36,7.5,7.5v63.83c0,4.14-3.36,7.5-7.5,7.5Z"/></g><g><path class="cls-3" d="M504.7,297.54c-15.7,0-28.47-12.77-28.47-28.47s12.77-28.47,28.47-28.47,28.47,12.77,28.47,28.47-12.77,28.47-28.47,28.47Zm0-41.95c-7.43,0-13.47,6.04-13.47,13.47s6.04,13.47,13.47,13.47,13.47-6.04,13.47-13.47-6.04-13.47-13.47-13.47Z"/><path class="cls-3" d="M504.7,412.39c-4.14,0-7.5-3.36-7.5-7.5v-113.85c0-4.14,3.36-7.5,7.5-7.5s7.5,3.36,7.5,7.5v113.85c0,4.14-3.36,7.5-7.5,7.5Z"/></g><g><path class="cls-3" d="M504.7,823.89c-15.7,0-28.47-12.77-28.47-28.47s12.77-28.47,28.47-28.47,28.47,12.77,28.47,28.47-12.77,28.47-28.47,28.47Zm0-41.95c-7.43,0-13.47,6.04-13.47,13.47s6.04,13.47,13.47,13.47,13.47-6.04,13.47-13.47-6.04-13.47-13.47-13.47Z"/><path class="cls-3" d="M504.7,780.78c-4.14,0-7.5-3.36-7.5-7.5v-56.83c0-4.14,3.36-7.5,7.5-7.5s7.5,3.36,7.5,7.5v56.83c0,4.14-3.36,7.5-7.5,7.5Z"/></g><g><path class="cls-3" d="M424.36,870.92c-15.7,0-28.47-12.77-28.47-28.47s12.77-28.47,28.47-28.47,28.47,12.77,28.47,28.47-12.77,28.47-28.47,28.47Zm0-41.95c-7.43,0-13.47,6.04-13.47,13.47s6.04,13.47,13.47,13.47,13.47-6.04,13.47-13.47-6.04-13.47-13.47-13.47Z"/><path class="cls-3" d="M424.36,827.81c-4.14,0-7.5-3.36-7.5-7.5v-103.86c0-4.14,3.36-7.5,7.5-7.5s7.5,3.36,7.5,7.5v103.86c0,4.14-3.36,7.5-7.5,7.5Z"/></g></g><g><path class="cls-1" d="M288.81,650.19c-2.98,0-5.8-1.79-6.97-4.72-2.07-5.18-3.95-10.5-5.59-15.82-1.22-3.96,1-8.16,4.95-9.38,3.96-1.22,8.16,1,9.38,4.96,1.52,4.93,3.27,9.87,5.19,14.68,1.54,3.85-.34,8.21-4.19,9.75-.91,.36-1.85,.54-2.78,.54Z"/><path class="cls-1" d="M349.85,732.87c-1.66,0-3.32-.55-4.71-1.67-18.75-15.15-34.64-33.23-47.23-53.74-2.17-3.53-1.06-8.15,2.47-10.32,3.53-2.16,8.15-1.06,10.32,2.47,11.7,19.05,26.46,35.84,43.88,49.92,3.22,2.6,3.72,7.33,1.12,10.55-1.48,1.83-3.65,2.79-5.84,2.79Z"/><path class="cls-1" d="M547.13,765.52c-3.06,0-5.93-1.88-7.04-4.92-1.43-3.89,.57-8.2,4.46-9.62,46.23-16.96,84.1-50.49,106.64-94.4,1.89-3.69,6.41-5.14,10.1-3.25,3.69,1.89,5.14,6.41,3.25,10.1-24.26,47.28-65.03,83.38-114.82,101.64-.85,.31-1.72,.46-2.58,.46Z"/><path class="cls-1" d="M675.77,617.01c-.51,0-1.03-.05-1.55-.16-4.05-.85-6.65-4.83-5.79-8.88,2.78-13.21,4.19-26.81,4.19-40.43,0-19.73-2.93-39.2-8.71-57.87-1.23-3.96,.99-8.16,4.95-9.38,3.96-1.23,8.16,.99,9.38,4.95,6.23,20.1,9.38,41.07,9.38,62.31,0,14.66-1.52,29.3-4.51,43.52-.74,3.53-3.86,5.96-7.33,5.96Z"/><path class="cls-1" d="M275.73,598.19c-.83,0-1.68-.14-2.49-.42l-65.89-23.16c-3-1.06-5.01-3.89-5.01-7.08,0-71.98,27.53-140.12,77.51-191.88,2.88-2.98,7.62-3.06,10.6-.19,2.98,2.88,3.06,7.63,.18,10.61-46.04,47.68-71.93,110.05-73.25,176.17l49.88,17.53c-.23-4.08-.35-8.17-.35-12.24,0-51.26,18.65-100.65,52.52-139.06,2.74-3.11,7.48-3.4,10.59-.66,3.11,2.74,3.41,7.48,.67,10.59-31.45,35.67-48.77,81.53-48.77,129.13,0,7.45,.42,14.95,1.26,22.31,.29,2.57-.76,5.1-2.78,6.71-1.35,1.07-3,1.64-4.68,1.64Z"/><path class="cls-1" d="M325.06,794.95c-1.47,0-2.96-.43-4.27-1.34-47.6-33.01-83.04-79.16-102.46-133.48-1.4-3.9,.64-8.19,4.54-9.59,3.89-1.39,8.19,.64,9.59,4.54,18.1,50.61,52.51,95.43,96.88,126.2,3.4,2.36,4.25,7.03,1.89,10.44-1.46,2.1-3.79,3.23-6.17,3.23Z"/><path class="cls-1" d="M607.25,879.19c-2.06,0-4.07-.85-5.53-2.43l-46.11-50.21c-1.72-1.87-2.38-4.49-1.74-6.95,.64-2.46,2.48-4.43,4.9-5.24,17.77-5.9,34.95-13.79,51.06-23.46,3.55-2.13,8.16-.98,10.29,2.57,2.13,3.55,.98,8.16-2.57,10.29-13.76,8.25-28.26,15.29-43.23,20.98l34.83,37.92c41.92-18.78,80.06-46.85,110.57-81.44,31.89-36.15,55.62-79.65,68.63-125.79,1.12-3.99,5.27-6.31,9.25-5.18,3.99,1.12,6.31,5.27,5.18,9.25-13.62,48.3-38.46,93.82-71.82,131.65-33.14,37.57-74.9,67.81-120.76,87.43-.95,.41-1.96,.61-2.95,.61Z"/><path class="cls-1" d="M673.76,755.65c-1.8,0-3.61-.65-5.05-1.96-3.06-2.79-3.28-7.54-.49-10.6,20.46-22.43,36.78-48.03,48.49-76.09,13.16-31.52,20.05-65.02,20.48-99.57,.49-39.65-8.32-77.96-26.2-113.85-1.85-3.71-.34-8.21,3.37-10.06,3.71-1.85,8.21-.34,10.06,3.37,18.95,38.05,28.29,78.67,27.77,120.73-.45,36.47-7.73,71.85-21.64,105.16-12.38,29.66-29.63,56.71-51.25,80.42-1.48,1.62-3.51,2.44-5.54,2.44Z"/><path class="cls-1" d="M652.76,473.25c-.11,0-.22,0-.33,0-2.55-.11-4.87-1.52-6.15-3.72-24.11-41.49-62.4-72.58-107.8-87.55-3.93-1.3-6.07-5.54-4.77-9.47,1.3-3.93,5.53-6.07,9.47-4.77,45.24,14.92,83.91,44.69,110,84.44l30.07-42.54c-32.58-41.7-77.94-73.38-128.31-89.5-3.94-1.26-6.12-5.48-4.86-9.43,1.26-3.94,5.48-6.12,9.43-4.86,55.04,17.62,104.42,52.82,139.05,99.12,1.95,2.6,2,6.17,.12,8.82l-39.79,56.3c-1.41,1.99-3.7,3.17-6.12,3.17Z"/><path class="cls-1" d="M807.95,575.03c-4.14,0-7.5-3.36-7.5-7.5,0-80.54-29.8-157.7-83.92-217.26-2.79-3.07-2.56-7.81,.51-10.59,3.07-2.78,7.81-2.56,10.59,.51,56.63,62.33,87.82,143.07,87.82,227.35,0,4.14-3.36,7.5-7.5,7.5Z"/><path class="cls-1" d="M643.75,289.26c-1.28,0-2.59-.33-3.77-1.02-21.83-12.74-45.13-22.9-69.27-30.17-3.97-1.2-6.21-5.38-5.02-9.35,1.19-3.97,5.38-6.21,9.35-5.02,25.27,7.62,49.66,18.24,72.5,31.58,3.58,2.09,4.78,6.68,2.7,10.26-1.39,2.39-3.9,3.72-6.48,3.72Z"/><path class="cls-1" d="M207.59,383.6c-1.5,0-3.02-.45-4.34-1.39-3.38-2.4-4.17-7.08-1.77-10.46,54.74-76.97,139.62-127.9,232.87-139.71,4.1-.52,7.86,2.39,8.38,6.5,.52,4.11-2.39,7.86-6.5,8.38-89.1,11.29-170.21,59.95-222.53,133.52-1.46,2.06-3.77,3.15-6.12,3.15Z"/><path class="cls-1" d="M186.74,416.95c-1.21,0-2.44-.29-3.58-.92-3.64-1.98-4.98-6.54-3-10.18,1.63-2.99,3.34-6.02,5.08-8.99,2.09-3.58,6.69-4.77,10.26-2.68,3.57,2.09,4.78,6.69,2.68,10.26-1.67,2.84-3.3,5.74-4.86,8.59-1.36,2.5-3.94,3.91-6.59,3.91Z"/><path class="cls-1" d="M177.97,715.81c-2.81,0-5.51-1.59-6.79-4.31-21.29-45.19-32.09-93.63-32.09-143.97,0-40.66,7.14-80.42,21.23-118.18,1.45-3.88,5.77-5.85,9.65-4.41,3.88,1.45,5.85,5.77,4.41,9.65-13.46,36.08-20.28,74.07-20.28,112.94,0,48.11,10.32,94.4,30.66,137.58,1.77,3.75,.16,8.22-3.59,9.98-1.03,.49-2.12,.72-3.19,.72Z"/><path class="cls-1" d="M477.27,905.71c-98.95,0-192.63-43.15-257.03-118.4-2.69-3.15-2.33-7.88,.82-10.57,3.15-2.69,7.88-2.32,10.58,.82,61.54,71.91,151.08,113.15,245.63,113.15,27.78,0,55.36-3.53,81.98-10.49,4.01-1.05,8.11,1.35,9.15,5.36,1.05,4.01-1.35,8.11-5.36,9.15-27.85,7.28-56.71,10.97-85.77,10.97Z"/><path class="cls-1" d="M213.56,643.38c-12.17,0-22.08-9.9-22.08-22.08s9.9-22.08,22.08-22.08,22.08,9.9,22.08,22.08-9.9,22.08-22.08,22.08Zm0-29.15c-3.9,0-7.08,3.17-7.08,7.08s3.17,7.08,7.08,7.08,7.08-3.17,7.08-7.08-3.17-7.08-7.08-7.08Z"/><path class="cls-1" d="M197.27,766.98c-12.17,0-22.08-9.9-22.08-22.08s9.9-22.08,22.08-22.08,22.08,9.9,22.08,22.08-9.9,22.08-22.08,22.08Zm0-29.15c-3.9,0-7.08,3.17-7.08,7.08s3.17,7.08,7.08,7.08,7.08-3.17,7.08-7.08-3.17-7.08-7.08-7.08Z"/><path class="cls-1" d="M645.24,795.93c-12.17,0-22.08-9.9-22.08-22.08s9.9-22.08,22.08-22.08,22.08,9.9,22.08,22.08-9.9,22.08-22.08,22.08Zm0-29.15c-3.9,0-7.08,3.17-7.08,7.08s3.17,7.08,7.08,7.08,7.08-3.17,7.08-7.08-3.17-7.08-7.08-7.08Z"/><path class="cls-1" d="M314.09,378.96c-12.17,0-22.08-9.9-22.08-22.08s9.9-22.08,22.08-22.08,22.08,9.9,22.08,22.08-9.9,22.08-22.08,22.08Zm0-29.15c-3.9,0-7.08,3.17-7.08,7.08s3.17,7.08,7.08,7.08,7.08-3.17,7.08-7.08-3.17-7.08-7.08-7.08Z"/><path class="cls-1" d="M687.61,334.44c-12.17,0-22.08-9.9-22.08-22.08s9.9-22.08,22.08-22.08,22.08,9.9,22.08,22.08-9.9,22.08-22.08,22.08Zm0-29.15c-3.9,0-7.08,3.17-7.08,7.08s3.17,7.08,7.08,7.08,7.08-3.17,7.08-7.08-3.17-7.08-7.08-7.08Z"/><path class="cls-1" d="M802.07,640.99c-12.17,0-22.08-9.9-22.08-22.08s9.9-22.08,22.08-22.08,22.08,9.9,22.08,22.08-9.9,22.08-22.08,22.08Zm0-29.15c-3.9,0-7.08,3.17-7.08,7.08s3.17,7.08,7.08,7.08,7.08-3.17,7.08-7.08-3.17-7.08-7.08-7.08Z"/></g></g></g></g></svg>