<?xml version="1.0" encoding="UTF-8"?><svg id="_이어_2" xmlns="http://www.w3.org/2000/svg" viewBox="0 0 77.57 52.04"><g id="_이어_1-2"><g><path d="M72.28,0H5.29C2.37,0,0,2.37,0,5.29V46.76c0,2.91,2.37,5.29,5.29,5.29H72.28c2.91,0,5.29-2.37,5.29-5.29V5.29c0-2.91-2.37-5.29-5.29-5.29Zm1.09,23.33v23.43c0,.6-.49,1.09-1.09,1.09H5.29c-.6,0-1.09-.49-1.09-1.09V23.33H73.38Zm0-9.57v5.38H4.19v-5.38H73.38ZM4.19,9.57V5.29c0-.6,.49-1.1,1.09-1.1H72.28c.6,0,1.09,.49,1.09,1.1v4.29H4.19Z"/><path d="M49.95,42.47h15.95c1.16,0,2.1-.94,2.1-2.1s-.94-2.09-2.1-2.09h-15.95c-1.16,0-2.1,.94-2.1,2.09s.94,2.1,2.1,2.1Z"/></g></g></svg>