<?xml version="1.0" encoding="UTF-8"?><svg id="_이어_2" xmlns="http://www.w3.org/2000/svg" viewBox="0 0 68.97 82.37"><defs><style>.cls-1{fill:#fff;}</style></defs><g id="_이어_1-2"><g><path class="cls-1" d="M55.58,62.95V6.02c0-3.32-2.7-6.02-6.02-6.02H6.02C2.7,0,0,2.7,0,6.02V62.95c0,3.32,2.7,6.02,6.02,6.02H49.55c3.32,0,6.02-2.7,6.02-6.02ZM5.35,6.02c0-.37,.3-.67,.67-.67H49.55c.37,0,.67,.3,.67,.67V62.95c0,.37-.3,.67-.67,.67H6.02c-.37,0-.67-.3-.67-.67V6.02Z"/><path class="cls-1" d="M62.95,13.39h-3.35c-1.47,0-2.67,1.2-2.67,2.67s1.2,2.67,2.67,2.67h3.35c.37,0,.67,.3,.67,.67v56.93c0,.37-.3,.67-.67,.67H19.42c-.37,0-.67-.3-.67-.67v-3.35c0-1.47-1.2-2.67-2.67-2.67s-2.67,1.2-2.67,2.67v3.35c0,3.32,2.7,6.02,6.02,6.02H62.95c3.32,0,6.02-2.7,6.02-6.02V19.42c0-3.32-2.7-6.02-6.02-6.02Z"/></g></g></svg>