<?xml version="1.0" encoding="UTF-8"?><svg id="_이어_2" xmlns="http://www.w3.org/2000/svg" viewBox="0 0 88.35 76.41"><g id="_이어_1-2"><g><g><path d="M33.04,41.59c.72,.13,1.44,.19,2.16,.19,2.75,0,5.42-.95,7.54-2.72,2.68-2.24,4.22-5.53,4.22-9.01v-4.11c0-3.49-1.54-6.77-4.22-9.01-2.68-2.24-6.21-3.15-9.7-2.53-5.18,.94-9.56,6.45-9.56,12.05v3.1c0,5.59,4.38,11.11,9.56,12.05Zm-6.63-15.15c0-4.19,3.34-8.47,7.15-9.16,.56-.1,1.12-.15,1.67-.15,2.06,0,4.01,.7,5.62,2.04,2.01,1.68,3.16,4.14,3.16,6.76v4.11c0,2.62-1.15,5.08-3.16,6.76-2.04,1.7-4.62,2.38-7.29,1.89-3.81-.69-7.15-4.97-7.15-9.16v-3.1Z"/><path d="M70.43,41.2c0-19.42-15.8-35.22-35.22-35.22S0,21.78,0,41.2c0,10.08,4.27,19.18,11.08,25.61,.08,.1,.18,.2,.29,.27,6.28,5.79,14.66,9.34,23.85,9.34s17.57-3.54,23.85-9.34c.11-.08,.2-.17,.29-.27,6.81-6.43,11.08-15.53,11.08-25.61Zm-67.5,0C2.93,23.4,17.42,8.91,35.22,8.91s32.28,14.48,32.28,32.28c0,8.59-3.38,16.41-8.88,22.2-4.52-8.2-13.48-13.4-23.4-13.4s-18.88,5.2-23.4,13.4c-5.5-5.79-8.88-13.61-8.88-22.2Zm11.09,24.32c3.87-7.67,12.07-12.58,21.2-12.58s17.32,4.91,21.2,12.58c-5.68,4.95-13.09,7.96-21.2,7.96s-15.52-3.01-21.2-7.96Z"/></g><g><path d="M76.55,8.11c-.82,0-1.49,.67-1.49,1.49v9.13c0,.82,.67,1.49,1.49,1.49s1.49-.67,1.49-1.49V9.59c0-.82-.67-1.49-1.49-1.49Z"/><path d="M76.55,4.79c-.82,0-1.49,.67-1.49,1.49s.67,1.49,1.49,1.49,1.49-.67,1.49-1.49-.67-1.49-1.49-1.49Z"/><path d="M76.55,0c-6.51,0-11.8,5.29-11.8,11.8s5.29,11.8,11.8,11.8,11.8-5.29,11.8-11.8S83.05,0,76.55,0Zm0,20.87c-5,0-9.07-4.07-9.07-9.07s4.07-9.07,9.07-9.07,9.07,4.07,9.07,9.07-4.07,9.07-9.07,9.07Z"/></g></g></g></svg>