<svg xmlns="http://www.w3.org/2000/svg" width="23" height="23" viewBox="0 0 23 23">
  <path id="icon4" d="M11.5,23A11.5,11.5,0,0,1,3.368,3.368,11.5,11.5,0,1,1,19.632,19.632,11.425,11.425,0,0,1,11.5,23ZM9.137,10.106a1.571,1.571,0,0,1,.576.086c.253.1.361.342.361.8a10.768,10.768,0,0,1-.6,2.664,8.11,8.11,0,0,0-.54,2.805,1.405,1.405,0,0,0,.18.743,1.969,1.969,0,0,0,1.555,1,3.34,3.34,0,0,0,.527.041,5.924,5.924,0,0,0,2.229-.554l.437-.175.1-.371a1.84,1.84,0,0,0,.081-.4l-.008,0a2.3,2.3,0,0,0-.362.094,2.853,2.853,0,0,1-.789.1,1.589,1.589,0,0,1-.673-.1.888.888,0,0,1-.284-.78,10.312,10.312,0,0,1,.6-2.686,8.556,8.556,0,0,0,.536-2.806,1.8,1.8,0,0,0-1.6-1.692,3.56,3.56,0,0,0-.641-.051,3.981,3.981,0,0,0-.5.029,7.741,7.741,0,0,0-1.485.437c-.651.239-.672.252-.725.442a2,2,0,0,0-.1.609l0,0a3.538,3.538,0,0,0,.349-.114A2.555,2.555,0,0,1,9.137,10.106ZM12.456,4a1.764,1.764,0,0,0-1.663,1.143,2.025,2.025,0,0,0-.066.551A1.676,1.676,0,0,0,12.486,7.3,1.764,1.764,0,0,0,13.7,6.835a1.437,1.437,0,0,0,.546-1.168,1.55,1.55,0,0,0-.552-1.223A1.892,1.892,0,0,0,12.456,4Z"/>
</svg>
