<?xml version="1.0" encoding="UTF-8"?><svg id="_이어_2" xmlns="http://www.w3.org/2000/svg" viewBox="0 0 1875.78 437.03"><defs><style>.cls-1{fill:#fff;}</style></defs><g id="_이어_1-2"><g><g><path class="cls-1" d="M372.61,328.28l-44.33,44.33-32.48,32.48-31.95,31.95c86.86-17.93,155.26-86.33,173.18-173.18l-31.95,31.95-32.48,32.48Z"/><path class="cls-1" d="M64.43,108.76l44.33-44.33,32.48-32.48L173.19,0C86.33,17.92,17.92,86.33,0,173.19l31.95-31.95,32.48-32.48Z"/><path class="cls-1" d="M226.7,136.69c-2.26-2.25-5.22-3.38-8.18-3.38s-5.92,1.13-8.18,3.38l-73.64,73.65c-2.19,2.18-3.39,5.09-3.39,8.18s1.2,6,3.39,8.18l73.64,73.64c4.51,4.51,11.85,4.52,16.36,0l73.64-73.64c4.51-4.51,4.51-11.85,0-16.36l-73.64-73.65Zm28.53,85.49l-33.05,33.04c-2.03,2.03-5.32,2.03-7.32,0l-33.05-33.04c-1-.97-1.53-2.28-1.53-3.66s.53-2.69,1.53-3.66l33.05-33.05c1-1,2.32-1.53,3.66-1.53s2.66,.53,3.66,1.53l33.05,33.05c2.03,2,2.03,5.32,0,7.32Z"/><path class="cls-1" d="M328.28,64.43l44.33,44.33,32.48,32.48,31.95,31.95C419.11,86.33,350.71,17.93,263.85,0l31.95,31.95,32.48,32.48Z"/><path class="cls-1" d="M108.76,372.61l-44.33-44.33-32.48-32.48L0,263.85c17.93,86.86,86.33,155.26,173.19,173.19l-31.95-31.95-32.48-32.48Z"/><path class="cls-1" d="M282.35,64.43l-22.68-22.68c-6.27-6.27-14.78-9.8-23.65-9.8h-34.99c-8.87,0-17.38,3.52-23.65,9.8l-22.68,22.68-90.26,90.26-22.68,22.68c-6.27,6.27-9.79,14.78-9.79,23.65v34.99c0,8.87,3.52,17.38,9.79,23.65l22.68,22.68,90.26,90.26,22.68,22.68c6.27,6.27,14.78,9.79,23.65,9.79h34.99c8.87,0,17.38-3.52,23.65-9.79l22.69-22.68,90.26-90.26,22.68-22.68c6.27-6.27,9.79-14.78,9.79-23.65v-34.99c0-8.87-3.52-17.38-9.79-23.65l-22.68-22.68-90.26-90.26Zm40.97,185.24l-73.64,73.64c-8.59,8.59-19.87,12.88-31.15,12.88s-22.56-4.29-31.15-12.88l-73.64-73.64c-17.17-17.18-17.17-45.12,0-62.3l73.64-73.64c17.17-17.17,45.12-17.18,62.29,0l73.64,73.64c17.17,17.18,17.17,45.12,0,62.3Z"/></g><g><path class="cls-1" d="M1190.94,219.96c-23.7,102.57-84.22,156.72-181.54,162.47-96.25-5.75-138.12-59.89-125.65-162.47,23.43-106.39,84.58-161.49,183.45-165.34,94.37,5.75,135.6,60.88,123.74,165.34Zm-77.15,0c9.78-66.13-9.85-100.64-58.89-103.51-51,2.88-83.74,37.38-98.21,103.51-9.63,65.19,10.56,99.21,60.55,102.08,50.83-1.91,83-35.94,96.55-102.08Z"/><path class="cls-1" d="M1457.59,281.08l30.4-22.65h-34.7l-31.33-164.84,38.8-28.91h-128.46l-171.05,317.74h75.74l34.61-69.01h117.82l10.28,69.01h77.15l-19.26-101.35Zm-160.92-22.3s63.87-128.9,66.16-136.58h1.41c.34,8.63,22.2,136.58,22.2,136.58h-89.77Z"/><path class="cls-1" d="M1805.67,116.92l70.11-52.24h-110.14l-67.23,94.89c-7.64,11.5-13.94,20.63-18.84,27.32-1.38-2.88-2.94-7.19-4.73-12.94-2.73-5.75-4.78-10.06-6.13-12.94l-34.91-96.33h-84.16l75.66,159.59-137.29,158.15h81.35l79.46-100.64c2.37-2.88,7.39-10.06,15.03-21.57,.58,1.94,1.56,4.31,2.94,7.19,2.54,6.72,4.5,11.51,5.88,14.39l43.97,100.64h86.97l-85.73-158.15,87.81-107.35Z"/><path class="cls-1" d="M779.44,277.28c-15.54,30.92-39.41,48.74-70.53,47.56-47.58-1.81-68.74-39.71-57.24-104.96,11.5-65.23,45.95-102,93.74-102.07,27.44-.04,44.21,13.46,51.65,35.31h73.74c-9.76-61.87-47.24-97.72-114.49-97.14-95.7,.84-156.07,60.39-178.99,163.9-13.59,103.52,26.39,160.07,121.44,162.47,73.04,1.85,124.32-35.03,152.84-105.07h-72.17Z"/></g></g></g></svg>