<?xml version="1.0" encoding="UTF-8"?><svg id="_이어_2" xmlns="http://www.w3.org/2000/svg" viewBox="0 0 1201.2 1201.2"><defs><style>.cls-1{fill:#fff;}.cls-2{fill:#27a17c;}</style></defs><g id="_이어_3"><g><circle class="cls-2" cx="600.6" cy="600.6" r="600.6"/><path class="cls-1" d="M950.18,557.8c-20.34-11.59-48.79-21.84-84.58-30.46-53.26-12.84-119.48-21.35-191.35-24.81v-60.98h211.83v-158.61H303.81v158.61h211.83v61.58c-67.5,3.78-129.58,12.05-180.03,24.21-35.79,8.62-64.25,18.87-84.58,30.46-26.69,15.21-40.23,33.38-40.23,54.01s13.53,38.8,40.23,54.01c20.34,11.59,48.79,21.84,84.58,30.46,50.45,12.16,112.53,20.43,180.03,24.21v253.23h158.61v-252.64c71.87-3.46,138.09-11.97,191.35-24.81,35.79-8.62,64.25-18.87,84.58-30.46,26.69-15.21,40.23-33.38,40.23-54.01s-13.53-38.8-40.23-54.01Zm-100.01,95.88c-62.94,14.6-144.77,23.05-232.03,24.05-.14,0-.27,0-.41,0-2.73,.03-5.47,.05-8.21,.07-2.97,.02-5.95,.03-8.93,.03-3.27,0-6.52-.01-9.78-.03-1.37,0-2.75-.02-4.12-.04-1.75-.02-3.49-.03-5.23-.05-1.95-.02-3.9-.05-5.85-.08-.85-.01-1.7-.03-2.55-.04-83.5-1.51-161.51-9.86-222.04-23.9-75.69-17.55-94.27-37.34-95.22-41.88,.96-4.54,19.54-24.32,95.22-41.88,46.4-10.76,103.07-18.18,164.6-21.74v102.22c27.51,1.59,55.99,2.41,84.97,2.41,25.02,0,49.67-.62,73.64-1.81v-103.43c65.9,3.27,126.7,10.92,175.93,22.34,75.69,17.55,94.27,37.34,95.22,41.88-.96,4.54-19.54,24.32-95.22,41.88Z"/></g></g></svg>